<svg xmlns="http://www.w3.org/2000/svg" viewBox="3385.701 -9257.3 36 36">
  <defs>
    <style>
      .cls-1 {
        fill: #fff;
        fill-rule: evenodd;
      }
    </style>
  </defs>
  <g id="Logo" transform="translate(3385.701 -9257.359)">
    <path id="Path_5811" data-name="Path 5811" class="cls-1" d="M0,51.814,1.779,50.04l9.842,9.8V56.271l-8.058-8L5.385,46.45l6.236,6.214V49.049l-4.435-4.4,1.8-1.8,5.18,5.163V65.935Z" transform="translate(0 -33.69)"/>
    <path id="Path_5812" data-name="Path 5812" class="cls-1" d="M116.483,51.876,114.7,50.1l-9.842,9.8V56.327l8.05-7.994-1.822-1.816-6.228,6.218V49.12l4.435-4.413-1.8-1.8-5.182,5.17V66Z" transform="translate(-80.483 -33.737)"/>
    <path id="Path_5813" data-name="Path 5813" class="cls-1" d="M79.67,36.06l-1.28-1.276V1.336L79.67.06l1.28,1.276V34.8Z" transform="translate(-61.666 0)"/>
    <path id="Path_5814" data-name="Path 5814" class="cls-1" d="M54,18.67v6.707L50.63,22.024Z" transform="translate(-39.828 -14.652)"/>
    <path id="Path_5815" data-name="Path 5815" class="cls-1" d="M102.39,18.59l3.315,3.3c-.838.823-2.473,2.58-3.315,3.42Z" transform="translate(-80.545 -14.589)"/>
  </g>
</svg>
